<!-- Generator: Adobe Illustrator 18.0.0, SVG Export Plug-In  -->
<svg version="1.1"
	 xmlns="http://www.w3.org/2000/svg" xmlns:xlink="http://www.w3.org/1999/xlink" xmlns:a="http://ns.adobe.com/AdobeSVGViewerExtensions/3.0/"
	 x="0px" y="0px" width="73.3px" height="37.8px" viewBox="0 0 73.3 37.8" enable-background="new 0 0 73.3 37.8"
	 xml:space="preserve">
<defs>
</defs>
<g>
	<g>
		<path fill="#492A7E" d="M73,37.6c-2.3-0.7-4.6-1.5-6.9-2.3l-6.8-2.4c-4.5-1.6-9-3.3-13.5-5c-2.2-0.9-4.5-1.7-6.7-2.7
			c-2.2-0.9-4.4-1.9-6.6-2.8l-6.6-2.8c-2.2-0.9-4.4-1.8-6.7-2.7l0.3,0c-1.6,0.9-3.1,1.9-4.7,2.8c-1.5,1-3.1,1.9-4.6,2.9
			c-1.5,1-3.1,2-4.6,2.9c-1.5,1-3.1,1.9-4.6,2.9l-0.3-1.7L18.8,29c3,0.4,6.1,0.8,9.1,1.2l9.1,1.3L46,33c3,0.5,6,0.9,9.1,1.4
			c6,1,12.1,2,18.1,3L73,37.6z M73.1,37.6C67,37,60.9,36.4,54.8,35.7c-3-0.3-6.1-0.7-9.1-1.1l-9.1-1.1l-9.1-1.2
			c-3-0.4-6.1-0.8-9.1-1.2L0.3,28.5L0,26.8c1.6-0.9,3.2-1.7,4.8-2.6c1.6-0.9,3.2-1.7,4.8-2.6c1.6-0.9,3.2-1.7,4.8-2.6
			c1.6-0.9,3.2-1.8,4.7-2.7l0.3,0c2.2,0.9,4.5,1.7,6.8,2.5l6.8,2.4c2.3,0.8,4.5,1.6,6.8,2.4c2.3,0.8,4.5,1.7,6.7,2.6
			c4.5,1.8,8.9,3.5,13.4,5.4l6.6,2.8c2.2,1,4.4,1.9,6.6,2.9L73.1,37.6z"/>
	</g>
	<g>
		<path fill="#492A7E" d="M23.4,12.9c2.1,0.9,4.2,1.8,6.4,2.8c2.1,0.9,4.2,1.9,6.3,2.9c4.2,1.9,8.4,3.9,12.5,5.9l3.1,1.5
			c1,0.5,2.1,1,3.1,1.6c2.1,1,4.1,2.1,6.1,3.2c4.1,2.2,8.1,4.4,12.3,6.5l-0.4,0.5c-1.8-1.6-3.5-3.1-5.3-4.6c-1.8-1.5-3.6-3-5.5-4.5
			l-5.5-4.4l-5.4-4.5c-3.6-3-7.2-6-10.8-9.1c-1.8-1.5-3.5-3.1-5.3-4.6l-5.2-4.7l1.3-0.2c-1.2,2-2.5,4-3.8,6c-0.6,1-1.3,2-1.9,3
			c-0.7,1-1.3,2-2,2.9L23.4,12.9z M23.3,12.9c0.5-1.1,1-2.1,1.5-3.2c0.5-1.1,1.1-2.1,1.6-3.2c1.1-2.1,2.2-4.2,3.3-6.3L31,0l5.4,4.5
			c1.8,1.5,3.6,3,5.4,4.6c3.6,3.1,7,6.2,10.6,9.3l5.2,4.7l5.2,4.8c1.7,1.6,3.4,3.2,5.2,4.7c1.8,1.6,3.5,3.1,5.3,4.6l-0.4,0.5
			c-4.2-2-8.4-3.9-12.6-5.8c-2.1-1-4.2-1.9-6.3-2.9c-1-0.5-2.1-1-3.1-1.5L47.8,26c-4.1-2.1-8.2-4.2-12.3-6.3c-2-1.1-4.1-2.2-6.1-3.3
			c-2-1.1-4.1-2.2-6.1-3.4L23.3,12.9z"/>
	</g>
	<g>
		<path fill="#492A7E" d="M23.4,13c0,0,0.3,0.4,0.5,0.9c0.1,0.1,0.1,0.3,0.2,0.5c0,0.1,0.1,0.3,0.2,0.5c0.1,0.2,0.1,0.4,0.2,0.5
			c0.1,0.2,0.1,0.4,0.2,0.6c0.2,0.8,0.3,1.6,0.3,2.2c0,0.6,0,1,0,1s-0.3-0.3-0.5-0.9c-0.3-0.5-0.6-1.3-0.8-2.1
			c-0.1-0.2-0.1-0.4-0.1-0.6c-0.1-0.2-0.1-0.4-0.1-0.6c0-0.2-0.1-0.3-0.1-0.6c0-0.2,0-0.3,0-0.5C23.3,13.4,23.4,13,23.4,13z"/>
	</g>
</g>
</svg>